# xmcd
#
# Track frame offsets:
#	150
#	19119
#	46171
#	63873
#	81667
#	115589
#	129521
#	147564
#	168495
#	187040
#	215546
#	240677
#	260119
#	278163
#	310508
#	328786
#	346740
#
# Disc length: 4828 seconds
#
# Revision: 1
# Processed by: cddbd v1.5.1PL2 Copyright (c) Steve Scherf et al.
# Submitted via: EasyCDDAExtractor 5.0.7
#
DISCID=fd12da11
DTITLE=Jack Hardy
DYEAR=1900
DGENRE=
TTITLE0=California
TTITLE1=The Hunter
TTITLE2=Marlene
TTITLE3=Dover To Dunkirk
TTITLE4=The Tinkers Coin
TTITLE5=Potters Field
TTITLE6=Porto Limon
TTITLE7=Blackberry Pie
TTITLE8=The Changing Wind
TTITLE9=The Warf Song
TTITLE10=The Nameless One
TTITLE11=Night Train To Paris
TTITLE12=May Day
TTITLE13=All Saints Eve
TTITLE14=The Drinking Song
TTITLE15=Through
TTITLE16=The Wedding Song
EXTD=
EXTT0=
EXTT1=
EXTT2=
EXTT3=
EXTT4=
EXTT5=
EXTT6=
EXTT7=
EXTT8=
EXTT9=
EXTT10=
EXTT11=
EXTT12=
EXTT13=
EXTT14=
EXTT15=
EXTT16=
PLAYORDER=
